# xmcd
#
# Track frame offsets: 
#        150
#        14962
#        30145
#        52941
#        67500
#        88456
#        98852
#        114321
#        132319
#
# Disc length: 2075 seconds
#
# Revision: 0
# Processed by: cddbd v1.5.2PL0 Copyright (c) Steve Scherf et al.
# Submitted via: ExactAudioCopyFreeDBPlugin 1.0
#
DISCID=6c081909
DTITLE=Dani Dorchin - One Man Band
DYEAR=2014
DGENRE=Blues
TTITLE0=Build A Home
TTITLE1=Conscious Too Long
TTITLE2=Keep On Lying
TTITLE3=To The Mountains
TTITLE4=Sad Sad Girl
TTITLE5=Show Me The Way
TTITLE6=Take Your Time
TTITLE7=This Far Behind
TTITLE8=Blame
EXTD=
EXTT0=
EXTT1=
EXTT2=
EXTT3=
EXTT4=
EXTT5=
EXTT6=
EXTT7=
EXTT8=
PLAYORDER=
